<?xml version="1.0" ?><svg enable-background="new 0 0 515.91 728.5" height="512" id="Layer_1" version="1.1" viewBox="0 0 512.00003 512" width="512" xml:space="preserve" xmlns="http://www.w3.org/2000/svg" xmlns:cc="http://creativecommons.org/ns#" xmlns:dc="http://purl.org/dc/elements/1.1/" xmlns:inkscape="http://www.inkscape.org/namespaces/inkscape" xmlns:rdf="http://www.w3.org/1999/02/22-rdf-syntax-ns#" xmlns:sodipodi="http://sodipodi.sourceforge.net/DTD/sodipodi-0.dtd" xmlns:svg="http://www.w3.org/2000/svg"><defs id="defs7"/><g id="g3011"><path d="m -413.3771,-150.31979 -57.95812,-24.00703 -24.00704,-57.95812 24.00703,-57.95812 57.95812,-24.00704 57.95812,24.00704 24.00704,57.95812 -24.00704,57.95811 z" id="path3756" style="fill:#000000;fill-opacity:1;fill-rule:nonzero;stroke:none" transform="matrix(3.1232785,-1.2937043,1.2937043,3.1232785,1847.5999,446.70283)"/><path d="m 280.3895,271.36914 97.95414,142.94553 h -27.70408 l -67.68519,-98.75993 -26.95436,-39.33257 -26.95315,39.33379 -67.68518,98.75993 H 133.65761 L 231.61175,271.37036 242.1492,255.99939 231.61053,240.62963 133.65639,97.685324 h 27.70408 l 67.68518,98.758706 26.95437,39.33258 26.95314,-39.3338 67.68519,-98.758705 h 27.70407 l -97.95414,142.944315 -10.53744,15.37097 10.53867,15.36975 z" id="path236" style="fill:#ffffff;fill-opacity:1"/></g></svg>