<svg xmlns="http://www.w3.org/2000/svg" xmlns:xlink="http://www.w3.org/1999/xlink" width="185.875" height="224.062"><defs><linearGradient id="b"><stop offset="0"/><stop offset="1" stop-color="#fff"/></linearGradient><linearGradient id="a"><stop offset="0"/><stop offset="1" stop-color="#fff"/></linearGradient><linearGradient x1="95.625" y1="1.719" x2="133.61" y2="117.418" id="c" xlink:href="#a" gradientUnits="userSpaceOnUse" gradientTransform="translate(-357.537 -229.885)"/><linearGradient x1="74.246" y1="52.103" x2="208.066" y2="340.488" id="d" xlink:href="#b" gradientUnits="userSpaceOnUse"/></defs><path d="M-302.35-227.448h-52.5l48.75 79.625s27.496-18.75 35.532-22.5l-31.781-57.125zm85.345 0l-25.188 41.782s44.665-20.55 59.844-20.907l13.375-20.875h-48.031z" fill="url(#c)" transform="translate(354.85 227.448)"/><path d="M51.111 81.16s33.596-21.715 35.54-22.51l8.72 15.499 20.4-31.594s44.612-19.709 59.373-20.151l-53.698 89.575 66.114 113.844h-45.962l-45.962-76.19-44.724 76.19H2.828l68.943-113.137-20.66-31.526z" transform="translate(-2.508 -1.761)" fill="url(#d)"/></svg>